<svg width="67" height="67" viewBox="0 0 67 67" fill="none" xmlns="http://www.w3.org/2000/svg">
<circle cx="33.5" cy="33.5" r="33.5" fill="#117AC9"/>
<path d="M33 7C18.6636 7 7 18.6631 7 32.999C7 47.3358 18.6636 59 33 59C47.3364 59 59 47.3358 59 32.999C59 18.6631 47.3364 7 33 7ZM9.62392 32.999C9.62392 29.6097 10.3509 26.3921 11.6478 23.4854L22.7986 54.0363C15.0007 50.2477 9.62392 42.2515 9.62392 32.999ZM33 56.3762C30.7058 56.3762 28.4906 56.0392 26.397 55.4236L33.4118 35.0425L40.5962 54.7279C40.643 54.8422 40.7012 54.9483 40.7636 55.0492C38.3331 55.9051 35.7217 56.3762 33 56.3762ZM36.2219 22.0388C37.629 21.965 38.8968 21.8173 38.8968 21.8173C40.1562 21.6686 40.0086 19.8175 38.7481 19.8913C38.7481 19.8913 34.9614 20.1888 32.5174 20.1888C30.2201 20.1888 26.3606 19.8913 26.3606 19.8913C25.1002 19.8175 24.9525 21.7425 26.213 21.8173C26.213 21.8173 27.4048 21.966 28.6642 22.0388L32.3063 32.0172L27.1895 47.3587L18.6782 22.0388C20.0863 21.965 21.353 21.8173 21.353 21.8173C22.6125 21.6686 22.4638 19.8175 21.2033 19.8913C21.2033 19.8913 17.4177 20.1888 14.9737 20.1888C14.5348 20.1888 14.0179 20.1773 13.4688 20.1596C17.6486 13.8138 24.8329 9.62382 33 9.62382C39.0861 9.62382 44.6272 11.9502 48.7851 15.7606C48.6853 15.7544 48.5865 15.7419 48.4825 15.7419C46.1862 15.7419 44.5565 17.7417 44.5565 19.8913C44.5565 21.8173 45.6682 23.4469 46.8528 25.374C47.742 26.9308 48.7799 28.9306 48.7799 31.8207C48.7799 33.8226 48.1861 36.3393 47.0015 39.3781L44.6698 47.1684L36.2219 22.0388ZM44.752 53.2033L51.8916 32.5611C53.2259 29.226 53.67 26.5595 53.67 24.1884C53.67 23.3273 53.6128 22.5287 53.513 21.7851C55.3371 25.114 56.3761 28.9348 56.3761 33C56.3761 41.6213 51.7023 49.1516 44.752 53.2033Z" fill="white"/>
</svg>
